<svg xmlns="http://www.w3.org/2000/svg" width="1346" height="2738" viewBox="0 0 1346 2738">
<defs><linearGradient id="metal" x1="0" y1="0" x2="1" y2="0"><stop offset="0" stop-color="#605c56"/><stop offset="0.012" stop-color="#d2cfc9"/><stop offset="0.03" stop-color="#aea89d"/><stop offset="0.5" stop-color="#bdb8af"/><stop offset="0.97" stop-color="#aea89d"/><stop offset="0.988" stop-color="#d2cfc9"/><stop offset="1" stop-color="#605c56"/></linearGradient>
<linearGradient id="keylight" gradientUnits="userSpaceOnUse" x1="0" y1="0" x2="807.6" y2="2738"><stop offset="0" stop-color="#fff" stop-opacity="0.32"/><stop offset="0.28" stop-color="#fff" stop-opacity="0"/><stop offset="0.7" stop-color="#000" stop-opacity="0"/><stop offset="1" stop-color="#000" stop-opacity="0.28"/></linearGradient>
<linearGradient id="streaks" gradientUnits="userSpaceOnUse" x1="0" y1="410.7" x2="1346" y2="1505.9"><stop offset="0.11" stop-color="#fff" stop-opacity="0"/><stop offset="0.16" stop-color="#fff" stop-opacity="0.5"/><stop offset="0.21000000000000002" stop-color="#fff" stop-opacity="0"/><stop offset="0.38" stop-color="#fff" stop-opacity="0"/><stop offset="0.43" stop-color="#fff" stop-opacity="0.22"/><stop offset="0.48" stop-color="#fff" stop-opacity="0"/><stop offset="0.69" stop-color="#fff" stop-opacity="0"/><stop offset="0.74" stop-color="#fff" stop-opacity="0.35"/><stop offset="0.79" stop-color="#fff" stop-opacity="0"/></linearGradient>
<linearGradient id="glare" x1="0" y1="0" x2="1" y2="1"><stop offset="0" stop-color="#ffffff" stop-opacity="0.07"/><stop offset="0.42" stop-color="#ffffff" stop-opacity="0.015"/><stop offset="0.43" stop-color="#ffffff" stop-opacity="0"/><stop offset="1" stop-color="#ffffff" stop-opacity="0"/></linearGradient>
<linearGradient id="btn6400" x1="0" y1="0" x2="1" y2="0"><stop offset="0" stop-color="#716d66"/><stop offset="0.5" stop-color="#aea89d"/><stop offset="1" stop-color="#c2beb6"/></linearGradient><linearGradient id="btn6400e" x1="0" y1="0" x2="0" y2="1"><stop offset="0" stop-color="#ffffff" stop-opacity="0.35"/><stop offset="0.12" stop-color="#ffffff" stop-opacity="0"/><stop offset="0.88" stop-color="#000000" stop-opacity="0"/><stop offset="1" stop-color="#000000" stop-opacity="0.4"/></linearGradient>
<linearGradient id="btn6580" x1="0" y1="0" x2="1" y2="0"><stop offset="0" stop-color="#716d66"/><stop offset="0.5" stop-color="#aea89d"/><stop offset="1" stop-color="#c2beb6"/></linearGradient><linearGradient id="btn6580e" x1="0" y1="0" x2="0" y2="1"><stop offset="0" stop-color="#ffffff" stop-opacity="0.35"/><stop offset="0.06" stop-color="#ffffff" stop-opacity="0"/><stop offset="0.94" stop-color="#000000" stop-opacity="0"/><stop offset="1" stop-color="#000000" stop-opacity="0.4"/></linearGradient>
<linearGradient id="btn6820" x1="0" y1="0" x2="1" y2="0"><stop offset="0" stop-color="#716d66"/><stop offset="0.5" stop-color="#aea89d"/><stop offset="1" stop-color="#c2beb6"/></linearGradient><linearGradient id="btn6820e" x1="0" y1="0" x2="0" y2="1"><stop offset="0" stop-color="#ffffff" stop-opacity="0.35"/><stop offset="0.06" stop-color="#ffffff" stop-opacity="0"/><stop offset="0.94" stop-color="#000000" stop-opacity="0"/><stop offset="1" stop-color="#000000" stop-opacity="0.4"/></linearGradient>
<linearGradient id="btn1330680" x1="0" y1="0" x2="1" y2="0"><stop offset="0" stop-color="#c2beb6"/><stop offset="0.5" stop-color="#aea89d"/><stop offset="1" stop-color="#716d66"/></linearGradient><linearGradient id="btn1330680e" x1="0" y1="0" x2="0" y2="1"><stop offset="0" stop-color="#ffffff" stop-opacity="0.35"/><stop offset="0.04" stop-color="#ffffff" stop-opacity="0"/><stop offset="0.96" stop-color="#000000" stop-opacity="0"/><stop offset="1" stop-color="#000000" stop-opacity="0.4"/></linearGradient>
<linearGradient id="btn13301560" x1="0" y1="0" x2="1" y2="0"><stop offset="0" stop-color="#c2beb6"/><stop offset="0.5" stop-color="#aea89d"/><stop offset="1" stop-color="#716d66"/></linearGradient><linearGradient id="btn13301560e" x1="0" y1="0" x2="0" y2="1"><stop offset="0" stop-color="#ffffff" stop-opacity="0.35"/><stop offset="0.05454545454545454" stop-color="#ffffff" stop-opacity="0"/><stop offset="0.9454545454545454" stop-color="#000000" stop-opacity="0"/><stop offset="1" stop-color="#000000" stop-opacity="0.4"/></linearGradient>
<linearGradient id="glassdepth" x1="0" y1="0" x2="0" y2="1"><stop offset="0" stop-color="#121213"/><stop offset="0.025" stop-color="#060607"/><stop offset="0.97" stop-color="#060607"/><stop offset="1" stop-color="#0d0d0e"/></linearGradient></defs>

<path fill="url(#btn6400)" d="M11,400H11A5,5 0 0 1 16,405V495A5,5 0 0 1 11,500H11A5,5 0 0 1 6,495V405A5,5 0 0 1 11,400Z"/><path fill="url(#btn6400e)" d="M11,400H11A5,5 0 0 1 16,405V495A5,5 0 0 1 11,500H11A5,5 0 0 1 6,495V405A5,5 0 0 1 11,400Z"/><path stroke="#ffffff" stroke-opacity="0.45" stroke-width="1.5" stroke-linecap="round" d="M7.5,407 V493"/><path stroke="#000" stroke-opacity="0.45" stroke-width="2" d="M11,402 V498"/>
<path fill="url(#btn6580)" d="M11,580H11A5,5 0 0 1 16,585V775A5,5 0 0 1 11,780H11A5,5 0 0 1 6,775V585A5,5 0 0 1 11,580Z"/><path fill="url(#btn6580e)" d="M11,580H11A5,5 0 0 1 16,585V775A5,5 0 0 1 11,780H11A5,5 0 0 1 6,775V585A5,5 0 0 1 11,580Z"/><path stroke="#ffffff" stroke-opacity="0.45" stroke-width="1.5" stroke-linecap="round" d="M7.5,587 V773"/><path stroke="#000" stroke-opacity="0.45" stroke-width="2" d="M11,582 V778"/>
<path fill="url(#btn6820)" d="M11,820H11A5,5 0 0 1 16,825V1015A5,5 0 0 1 11,1020H11A5,5 0 0 1 6,1015V825A5,5 0 0 1 11,820Z"/><path fill="url(#btn6820e)" d="M11,820H11A5,5 0 0 1 16,825V1015A5,5 0 0 1 11,1020H11A5,5 0 0 1 6,1015V825A5,5 0 0 1 11,820Z"/><path stroke="#ffffff" stroke-opacity="0.45" stroke-width="1.5" stroke-linecap="round" d="M7.5,827 V1013"/><path stroke="#000" stroke-opacity="0.45" stroke-width="2" d="M11,822 V1018"/>
<path fill="url(#btn1330680)" d="M1335,680H1335A5,5 0 0 1 1340,685V975A5,5 0 0 1 1335,980H1335A5,5 0 0 1 1330,975V685A5,5 0 0 1 1335,680Z"/><path fill="url(#btn1330680e)" d="M1335,680H1335A5,5 0 0 1 1340,685V975A5,5 0 0 1 1335,980H1335A5,5 0 0 1 1330,975V685A5,5 0 0 1 1335,680Z"/><path stroke="#ffffff" stroke-opacity="0.45" stroke-width="1.5" stroke-linecap="round" d="M1338.5,687 V973"/><path stroke="#000" stroke-opacity="0.45" stroke-width="2" d="M1335,682 V978"/>
<path fill="url(#btn13301560)" d="M1335,1560H1335A5,5 0 0 1 1340,1565V1775A5,5 0 0 1 1335,1780H1335A5,5 0 0 1 1330,1775V1565A5,5 0 0 1 1335,1560Z"/><path fill="url(#btn13301560e)" d="M1335,1560H1335A5,5 0 0 1 1340,1565V1775A5,5 0 0 1 1335,1780H1335A5,5 0 0 1 1330,1775V1565A5,5 0 0 1 1335,1560Z"/><path stroke="#ffffff" stroke-opacity="0.45" stroke-width="1.5" stroke-linecap="round" d="M1338.5,1567 V1773"/><path stroke="#000" stroke-opacity="0.45" stroke-width="2" d="M1335,1562 V1778"/>
<path fill-rule="evenodd" fill="url(#metal)" d="M242,0H1104A230,230 0 0 1 1334,230V2508A230,230 0 0 1 1104,2738H242A230,230 0 0 1 12,2508V230A230,230 0 0 1 242,0ZM242,16H1104A214,214 0 0 1 1318,230V2508A214,214 0 0 1 1104,2722H242A214,214 0 0 1 28,2508V230A214,214 0 0 1 242,16Z"/>
<path fill="none" stroke="#605c56" stroke-opacity="1" stroke-width="1.12" d="M242,0.56H1104A229.44,229.44 0 0 1 1333.44,230V2508A229.44,229.44 0 0 1 1104,2737.44H242A229.44,229.44 0 0 1 12.56,2508V230A229.44,229.44 0 0 1 242,0.56Z"/>
<path fill="none" stroke="#d2cfc9" stroke-opacity="0.61" stroke-width="2.08" d="M242,2.16H1104A227.84,227.84 0 0 1 1331.84,230V2508A227.84,227.84 0 0 1 1104,2735.84H242A227.84,227.84 0 0 1 14.16,2508V230A227.84,227.84 0 0 1 242,2.16Z"/>
<path fill="none" stroke="#bdb8af" stroke-opacity="0.5" stroke-width="1.6" d="M242,4H1104A226,226 0 0 1 1330,230V2508A226,226 0 0 1 1104,2734H242A226,226 0 0 1 16,2508V230A226,226 0 0 1 242,4Z"/>
<path fill="none" stroke="#605c56" stroke-opacity="0.32" stroke-width="1.92" d="M242,10.88H1104A219.12,219.12 0 0 1 1323.12,230V2508A219.12,219.12 0 0 1 1104,2727.12H242A219.12,219.12 0 0 1 22.88,2508V230A219.12,219.12 0 0 1 242,10.88Z"/>
<path fill="none" stroke="#d2cfc9" stroke-opacity="0.43000000000000005" stroke-width="1.6" d="M242,12.64H1104A217.36,217.36 0 0 1 1321.36,230V2508A217.36,217.36 0 0 1 1104,2725.36H242A217.36,217.36 0 0 1 24.64,2508V230A217.36,217.36 0 0 1 242,12.64Z"/>
<path fill="none" stroke="#050506" stroke-opacity="0.85" stroke-width="2.56" d="M242,14.72H1104A215.28,215.28 0 0 1 1319.28,230V2508A215.28,215.28 0 0 1 1104,2723.28H242A215.28,215.28 0 0 1 26.72,2508V230A215.28,215.28 0 0 1 242,14.72Z"/>
<rect x="12" y="273.8" width="16" height="6" fill="#837e76" opacity="0.7"/>
<rect x="1318" y="273.8" width="16" height="6" fill="#837e76" opacity="0.7"/>
<rect x="12" y="2464.2" width="16" height="6" fill="#837e76" opacity="0.7"/>
<rect x="1318" y="2464.2" width="16" height="6" fill="#837e76" opacity="0.7"/>
<path fill-rule="evenodd" fill="url(#keylight)" d="M242,0H1104A230,230 0 0 1 1334,230V2508A230,230 0 0 1 1104,2738H242A230,230 0 0 1 12,2508V230A230,230 0 0 1 242,0ZM242,16H1104A214,214 0 0 1 1318,230V2508A214,214 0 0 1 1104,2722H242A214,214 0 0 1 28,2508V230A214,214 0 0 1 242,16Z"/>
<path fill-rule="evenodd" fill="url(#streaks)" opacity="0.6" d="M242,0H1104A230,230 0 0 1 1334,230V2508A230,230 0 0 1 1104,2738H242A230,230 0 0 1 12,2508V230A230,230 0 0 1 242,0ZM242,16H1104A214,214 0 0 1 1318,230V2508A214,214 0 0 1 1104,2722H242A214,214 0 0 1 28,2508V230A214,214 0 0 1 242,16Z"/>
<path fill="none" stroke="#000" stroke-opacity="0.5" stroke-width="1.5" d="M242,0.75H1104A229.25,229.25 0 0 1 1333.25,230V2508A229.25,229.25 0 0 1 1104,2737.25H242A229.25,229.25 0 0 1 12.75,2508V230A229.25,229.25 0 0 1 242,0.75Z"/>
<path fill-rule="evenodd" fill="url(#glassdepth)" d="M242,16H1104A214,214 0 0 1 1318,230V2508A214,214 0 0 1 1104,2722H242A214,214 0 0 1 28,2508V230A214,214 0 0 1 242,16ZM242,58H1104A172,172 0 0 1 1276,230V2508A172,172 0 0 1 1104,2680H242A172,172 0 0 1 70,2508V230A172,172 0 0 1 242,58Z"/>
<path fill="none" stroke="#000000" stroke-opacity="0.9" stroke-width="2.5" d="M242,17.25H1104A212.75,212.75 0 0 1 1316.75,230V2508A212.75,212.75 0 0 1 1104,2720.75H242A212.75,212.75 0 0 1 29.25,2508V230A212.75,212.75 0 0 1 242,17.25Z"/>
<path fill="none" stroke="#ffffff" stroke-opacity="0.16" stroke-width="2" d="M242,19.5H1104A210.5,210.5 0 0 1 1314.5,230V2508A210.5,210.5 0 0 1 1104,2718.5H242A210.5,210.5 0 0 1 31.5,2508V230A210.5,210.5 0 0 1 242,19.5Z"/>
<path fill="none" stroke="#ffffff" stroke-opacity="0.04" stroke-width="5.5" d="M242,23.25H1104A206.75,206.75 0 0 1 1310.75,230V2508A206.75,206.75 0 0 1 1104,2714.75H242A206.75,206.75 0 0 1 35.25,2508V230A206.75,206.75 0 0 1 242,23.25Z"/>
<path fill-rule="evenodd" fill="url(#keylight)" opacity="0.12" d="M242,16H1104A214,214 0 0 1 1318,230V2508A214,214 0 0 1 1104,2722H242A214,214 0 0 1 28,2508V230A214,214 0 0 1 242,16ZM242,58H1104A172,172 0 0 1 1276,230V2508A172,172 0 0 1 1104,2680H242A172,172 0 0 1 70,2508V230A172,172 0 0 1 242,58Z"/>
<path fill="none" stroke="#000" stroke-opacity="0.55" stroke-width="3" d="M242,58H1104A172,172 0 0 1 1276,230V2508A172,172 0 0 1 1104,2680H242A172,172 0 0 1 70,2508V230A172,172 0 0 1 242,58Z"/><path fill="none" stroke="#000" stroke-opacity="0.2" stroke-width="3" d="M242,61H1104A169,169 0 0 1 1273,230V2508A169,169 0 0 1 1104,2677H242A169,169 0 0 1 73,2508V230A169,169 0 0 1 242,61Z"/><path fill="none" stroke="#000" stroke-opacity="0.13" stroke-width="3" d="M242,64H1104A166,166 0 0 1 1270,230V2508A166,166 0 0 1 1104,2674H242A166,166 0 0 1 76,2508V230A166,166 0 0 1 242,64Z"/><path fill="none" stroke="#000" stroke-opacity="0.08" stroke-width="3" d="M242,67H1104A163,163 0 0 1 1267,230V2508A163,163 0 0 1 1104,2671H242A163,163 0 0 1 79,2508V230A163,163 0 0 1 242,67Z"/><path fill="none" stroke="#000" stroke-opacity="0.045" stroke-width="3" d="M242,70H1104A160,160 0 0 1 1264,230V2508A160,160 0 0 1 1104,2668H242A160,160 0 0 1 82,2508V230A160,160 0 0 1 242,70Z"/><path fill="none" stroke="#000" stroke-opacity="0.02" stroke-width="3" d="M242,73H1104A157,157 0 0 1 1261,230V2508A157,157 0 0 1 1104,2665H242A157,157 0 0 1 85,2508V230A157,157 0 0 1 242,73Z"/>
<path fill="url(#glare)" d="M242,58H1104A172,172 0 0 1 1276,230V2508A172,172 0 0 1 1104,2680H242A172,172 0 0 1 70,2508V230A172,172 0 0 1 242,58Z"/>
<path fill="#17181b" d="M603.14,34.5H742.86A2.5,2.5 0 0 1 745.36,37V37A2.5,2.5 0 0 1 742.86,39.5H603.14A2.5,2.5 0 0 1 600.64,37V37A2.5,2.5 0 0 1 603.14,34.5Z"/>
<path stroke="#000" stroke-opacity="0.6" stroke-width="1" d="M603.64,35.25 H742.36"/>
<path stroke="#ffffff" stroke-opacity="0.16" stroke-width="1" d="M603.64,39.1 H742.36"/>
<path fill="#000" d="M540.5,92H805.5A55,55 0 0 1 860.5,147V147A55,55 0 0 1 805.5,202H540.5A55,55 0 0 1 485.5,147V147A55,55 0 0 1 540.5,92Z"/>
<linearGradient id="islandrim" x1="0" y1="0" x2="0" y2="1"><stop offset="0" stop-color="#fff" stop-opacity="0.16"/><stop offset="0.5" stop-color="#fff" stop-opacity="0"/></linearGradient>
<path fill="none" stroke="url(#islandrim)" stroke-width="2" d="M540.5,93.5H805.5A53.5,53.5 0 0 1 859,147V147A53.5,53.5 0 0 1 805.5,200.5H540.5A53.5,53.5 0 0 1 487,147V147A53.5,53.5 0 0 1 540.5,93.5Z"/>
<circle cx="553.7" cy="147" r="9.9" fill="#11131a"/>
<circle cx="550.4" cy="143.7" r="2.75" fill="#fff" fill-opacity="0.18"/>
<radialGradient id="lens806x147g" cx="0.38" cy="0.35" r="0.75"><stop offset="0" stop-color="#2c3855"/><stop offset="0.55" stop-color="#0e1424"/><stop offset="1" stop-color="#040508"/></radialGradient><radialGradient id="lens806x147c" cx="0.45" cy="0.4" r="0.7"><stop offset="0" stop-color="#5b4a8c" stop-opacity="0.85"/><stop offset="0.6" stop-color="#1c2a52" stop-opacity="0.9"/><stop offset="1" stop-color="#0a0f1d"/></radialGradient><circle cx="805.5" cy="147" r="26.4" fill="#0b0c0f"/><circle cx="805.5" cy="147" r="23.76" fill="none" stroke="#4a4d55" stroke-opacity="0.75" stroke-width="2.11"/><circle cx="805.5" cy="147" r="20.59" fill="url(#lens806x147g)"/><circle cx="805.5" cy="147" r="11.62" fill="url(#lens806x147c)"/><circle cx="805.5" cy="147" r="4.49" fill="#020203"/><ellipse cx="797.58" cy="138.55" rx="4.49" ry="2.9" transform="rotate(-35 797.58 138.55)" fill="#ffffff" fill-opacity="0.6"/><path fill="none" stroke="#8fb4ff" stroke-opacity="0.3" stroke-width="1.58" stroke-linecap="round" d="M819.23,152.28 A14.78,14.78 0 0 1 809.46,161.26"/>
</svg>
